<svg width="45" height="48" viewBox="0 0 45 48" fill="none" xmlns="http://www.w3.org/2000/svg">
<path d="M10.735 10.4106C10.1517 8.92198 10.175 7.22098 10.434 5.66464C12.2171 6.19892 13.8918 7.04414 15.3807 8.16131C16.034 8.66064 16.8903 8.82164 17.6883 8.58131C19.736 7.96867 21.8627 7.66048 24 7.66664C26.2423 7.66664 28.3727 7.99331 30.307 8.57898C31.105 8.82164 31.9613 8.65831 32.6123 8.15898C34.1005 7.04205 35.7744 6.19684 37.5567 5.66231C37.8157 7.21864 37.8367 8.91964 37.258 10.406C36.908 11.302 37.083 12.3333 37.7433 13.066C39.4327 14.9396 40.3333 17.0933 40.3333 19.3333C40.3333 24.266 35.7367 29.103 28.354 30.5753C26.506 30.944 25.785 33.2703 27.199 34.6026C28.1067 35.4566 28.6667 36.6606 28.6667 38V45C28.6667 45.6188 28.9125 46.2123 29.3501 46.6499C29.7877 47.0875 30.3812 47.3333 31 47.3333C31.6188 47.3333 32.2123 47.0875 32.6499 46.6499C33.0875 46.2123 33.3333 45.6188 33.3333 45V38C33.3333 36.67 33.0533 35.4053 32.554 34.2596C39.5937 31.8166 45 26.317 45 19.3333C45 16.1903 43.8707 13.3016 41.997 10.882C42.487 8.96864 42.4427 7.04131 42.256 5.56198C42.0903 4.23664 41.8593 2.50064 40.926 1.46464C39.5377 -0.0730228 37.2393 0.83231 35.606 1.38998C33.8539 1.98285 32.1869 2.8026 30.6477 3.82831C28.4754 3.27394 26.2419 2.99564 24 2.99998C21.6807 2.99998 19.443 3.29164 17.3477 3.83064C15.8084 2.80491 14.1415 1.98516 12.3893 1.39231C10.756 0.832311 8.45534 -0.0730228 7.06701 1.46464C6.11501 2.51931 5.91667 4.11764 5.74634 5.47564L5.73467 5.56431C5.54801 7.04598 5.50601 8.97565 5.99601 10.8913C4.12934 13.3086 3.00001 16.1926 3.00001 19.3333C3.00001 26.3146 8.40634 31.8166 15.446 34.2596C14.9365 35.4246 14.6712 36.6818 14.6667 37.9533L14.2747 38.0326C12.6017 38.2636 11.5307 38.056 10.8027 37.748C9.02934 36.9966 8.11467 35.1043 6.99934 33.6576C6.30401 32.7593 5.29134 31.637 3.73734 31.119C3.44655 31.0222 3.13953 30.9835 2.83382 31.0054C2.52811 31.0272 2.2297 31.109 1.95561 31.2462C1.40206 31.5232 0.981226 32.0087 0.785673 32.596C0.59012 33.1833 0.635871 33.8242 0.912863 34.3777C1.18985 34.9313 1.67539 35.3521 2.26267 35.5476C3.56467 35.9816 4.46534 38.2123 5.29134 39.2016C6.16167 40.247 7.31901 41.339 8.97801 42.0436C10.5693 42.7203 12.4383 42.9606 14.6667 42.6876V45C14.6667 45.6188 14.9125 46.2123 15.3501 46.6499C15.7877 47.0875 16.3812 47.3333 17 47.3333C17.6188 47.3333 18.2123 47.0875 18.6499 46.6499C19.0875 46.2123 19.3333 45.6188 19.3333 45V38C19.3333 36.6606 19.8933 35.4566 20.801 34.6026C22.2173 33.268 21.494 30.944 19.646 30.5753C12.261 29.103 7.66667 24.266 7.66667 19.3333C7.66667 17.098 8.56501 14.9443 10.252 13.0706C10.9123 12.338 11.085 11.3066 10.735 10.4106Z" fill="black"/>
</svg>
