<svg width="42" height="42" viewBox="0 0 42 42" fill="none" xmlns="http://www.w3.org/2000/svg">
<path d="M35 0C36.8565 0 38.637 0.737498 39.9497 2.05025C41.2625 3.36301 42 5.14348 42 7V35C42 36.8565 41.2625 38.637 39.9497 39.9497C38.637 41.2625 36.8565 42 35 42H7C5.14348 42 3.36301 41.2625 2.05025 39.9497C0.737498 38.637 0 36.8565 0 35V7C0 5.14348 0.737498 3.36301 2.05025 2.05025C3.36301 0.737498 5.14348 0 7 0H35ZM35 4.66667H7C6.38116 4.66667 5.78767 4.9125 5.35008 5.35008C4.9125 5.78767 4.66667 6.38116 4.66667 7V35C4.66667 35.6188 4.9125 36.2123 5.35008 36.6499C5.78767 37.0875 6.38116 37.3333 7 37.3333H35C35.6188 37.3333 36.2123 37.0875 36.6499 36.6499C37.0875 36.2123 37.3333 35.6188 37.3333 35V7C37.3333 6.38116 37.0875 5.78767 36.6499 5.35008C36.2123 4.9125 35.6188 4.66667 35 4.66667ZM11.6667 16.3333C12.2382 16.3334 12.7898 16.5432 13.2169 16.923C13.644 17.3028 13.9168 17.8261 13.9837 18.3937L14 18.6667V30.3333C13.9993 30.9281 13.7716 31.5001 13.3634 31.9325C12.9551 32.365 12.3971 32.6252 11.8034 32.6601C11.2097 32.6949 10.6251 32.5018 10.1691 32.12C9.713 31.7383 9.41991 31.1969 9.34967 30.6063L9.33333 30.3333V18.6667C9.33333 18.0478 9.57917 17.4543 10.0168 17.0168C10.4543 16.5792 11.0478 16.3333 11.6667 16.3333ZM18.6667 14C19.2131 13.9999 19.7423 14.1916 20.1619 14.5417C20.5814 14.8918 20.8649 15.378 20.9627 15.9157C21.4322 15.6434 21.9176 15.3995 22.4163 15.1853C23.9727 14.5203 26.3037 14.154 28.4083 14.8143C29.512 15.1643 30.6203 15.8177 31.4417 16.9307C32.1767 17.9223 32.5733 19.1287 32.6527 20.4843L32.6667 21V30.3333C32.666 30.9281 32.4383 31.5001 32.03 31.9325C31.6218 32.365 31.0638 32.6252 30.4701 32.6601C29.8764 32.6949 29.2918 32.5018 28.8357 32.12C28.3797 31.7383 28.0866 31.1969 28.0163 30.6063L28 30.3333V21C28 20.23 27.8133 19.8707 27.692 19.705C27.5178 19.4884 27.2778 19.3344 27.0083 19.2663C26.1963 19.0097 25.0273 19.145 24.2503 19.4763C23.0837 19.9757 22.015 20.7597 21.287 21.4853L21 21.7933V30.3333C20.9993 30.9281 20.7716 31.5001 20.3634 31.9325C19.9551 32.365 19.3971 32.6252 18.8034 32.6601C18.2097 32.6949 17.6251 32.5018 17.1691 32.12C16.713 31.7383 16.4199 31.1969 16.3497 30.6063L16.3333 30.3333V16.3333C16.3333 15.7145 16.5792 15.121 17.0168 14.6834C17.4543 14.2458 18.0478 14 18.6667 14ZM11.6667 9.33333C12.2855 9.33333 12.879 9.57917 13.3166 10.0168C13.7542 10.4543 14 11.0478 14 11.6667C14 12.2855 13.7542 12.879 13.3166 13.3166C12.879 13.7542 12.2855 14 11.6667 14C11.0478 14 10.4543 13.7542 10.0168 13.3166C9.57917 12.879 9.33333 12.2855 9.33333 11.6667C9.33333 11.0478 9.57917 10.4543 10.0168 10.0168C10.4543 9.57917 11.0478 9.33333 11.6667 9.33333Z" fill="black"/>
</svg>
