<svg width="48" height="48" viewBox="0 0 48 48" fill="none" xmlns="http://www.w3.org/2000/svg">
<path d="M14.2 0.666687H33.8C41.2667 0.666687 47.3334 6.73335 47.3334 14.2V33.8C47.3334 37.3893 45.9075 40.8315 43.3695 43.3695C40.8315 45.9075 37.3893 47.3334 33.8 47.3334H14.2C6.73335 47.3334 0.666687 41.2667 0.666687 33.8V14.2C0.666687 10.6108 2.09252 7.1685 4.63051 4.63051C7.1685 2.09252 10.6108 0.666687 14.2 0.666687ZM13.7334 5.33335C11.5055 5.33335 9.36896 6.21835 7.79366 7.79366C6.21835 9.36896 5.33335 11.5055 5.33335 13.7334V34.2667C5.33335 38.91 9.09002 42.6667 13.7334 42.6667H34.2667C36.4945 42.6667 38.6311 41.7817 40.2064 40.2064C41.7817 38.6311 42.6667 36.4945 42.6667 34.2667V13.7334C42.6667 9.09002 38.91 5.33335 34.2667 5.33335H13.7334ZM36.25 8.83335C37.0236 8.83335 37.7654 9.14065 38.3124 9.68763C38.8594 10.2346 39.1667 10.9765 39.1667 11.75C39.1667 12.5236 38.8594 13.2654 38.3124 13.8124C37.7654 14.3594 37.0236 14.6667 36.25 14.6667C35.4765 14.6667 34.7346 14.3594 34.1876 13.8124C33.6406 13.2654 33.3334 12.5236 33.3334 11.75C33.3334 10.9765 33.6406 10.2346 34.1876 9.68763C34.7346 9.14065 35.4765 8.83335 36.25 8.83335ZM24 12.3334C27.0942 12.3334 30.0617 13.5625 32.2496 15.7504C34.4375 17.9384 35.6667 20.9058 35.6667 24C35.6667 27.0942 34.4375 30.0617 32.2496 32.2496C30.0617 34.4375 27.0942 35.6667 24 35.6667C20.9058 35.6667 17.9384 34.4375 15.7504 32.2496C13.5625 30.0617 12.3334 27.0942 12.3334 24C12.3334 20.9058 13.5625 17.9384 15.7504 15.7504C17.9384 13.5625 20.9058 12.3334 24 12.3334ZM24 17C22.1435 17 20.363 17.7375 19.0503 19.0503C17.7375 20.363 17 22.1435 17 24C17 25.8565 17.7375 27.637 19.0503 28.9498C20.363 30.2625 22.1435 31 24 31C25.8565 31 27.637 30.2625 28.9498 28.9498C30.2625 27.637 31 25.8565 31 24C31 22.1435 30.2625 20.363 28.9498 19.0503C27.637 17.7375 25.8565 17 24 17Z" fill="black"/>
</svg>
